<svg version="1.1" xmlns="http://www.w3.org/2000/svg" width="1113.1pt" height="508.4pt" viewBox="0 0 1113.1 508.4"><style type="text/css">.dashed {stroke-dasharray: 5,5} .dotted {stroke-dasharray: 1,5} .overlay {fill: none; pointer-events: all}</style><g><g transform="translate(4, 504.3999938964844)"><polygon stroke="#fffffe" stroke-opacity="0" fill="#ffffff" points="-4,4 -4,-504.4 1109.1,-504.4 1109.1,4"></polygon><g class="node"><title>edge</title></g><g class="node"><title>64147968</title><path stroke="#000000" fill="#f0f8ff" d="M 186.05,-450.3 L 186.05,-499.9,272.83,-499.9,272.83,-450.3 Z"></path><path stroke="#000000" fill="none" d="M 186.05,-475.1 L 272.83,-475.1"></path><text x="229.44" y="-483.3" text-anchor="middle" font-family="'Times-Roman',serif" font-size="14" fill="#000000">EntityModel</text><text x="229.44" y="-458.5" text-anchor="middle" font-family="'Times-Roman',serif" font-size="14" fill="#000000"> </text></g><g class="node"><title>64135208</title><path stroke="#000000" fill="#f0f8ff" d="M 56,-363.7 L 56,-413.3,110.88,-413.3,110.88,-363.7 Z"></path><path stroke="#000000" fill="none" d="M 56,-388.5 L 110.88,-388.5"></path><text x="83.44" y="-396.7" text-anchor="middle" font-family="'Times-Roman',serif" font-size="14" fill="#000000">Config</text><text x="83.44" y="-371.9" text-anchor="middle" font-family="'Times-Roman',serif" font-size="14" fill="#000000"> </text></g><g class="relation" style="opacity: 1;"><title>64147968-&gt;64135208</title><path stroke="#000000" fill="none" d="M 177.6,-444.06 C 158.51,-433,137.32,-420.72,119.87,-410.61"></path><path class="solid" stroke="#000000" fill="#000000" d="M 121.53,-407.53 L 111.13,-405.54,118.02,-413.59 Z"></path><path class="solid" stroke="#000000" fill="#000000" d="M 177.61,-444.07 L 184.81,-443.61,187.99,-450.08,180.79,-450.54 Z"></path><text x="133.48" y="-409.74" text-anchor="middle" font-family="'Times-Roman',serif" font-size="14" fill="#000000">configs </text></g><g class="node"><title>64153480</title><path stroke="#000000" fill="#f0f8ff" d="M 81,-173.7 L 81,-223.3,153.88,-223.3,153.88,-173.7 Z"></path><path stroke="#000000" fill="none" d="M 81,-198.5 L 153.88,-198.5"></path><text x="117.44" y="-206.7" text-anchor="middle" font-family="'Times-Roman',serif" font-size="14" fill="#000000">Package</text><text x="89" y="-181.9" text-anchor="start" font-family="'Times-Roman',serif" font-size="14" fill="#000000">+name:ID</text></g><g class="relation" style="opacity: 1;"><title>64147968-&gt;64153480</title><path stroke="#000000" fill="none" d="M 215.11,-438.97 C 193.39,-385.73,152.42,-285.28,131.11,-233.01"></path><path class="solid" stroke="#000000" fill="#000000" d="M 134.26,-231.47 L 127.24,-223.53,127.78,-234.11 Z"></path><path class="solid" stroke="#000000" fill="#000000" d="M 215.16,-439.1 L 221.13,-443.15,219.7,-450.21,213.73,-446.17 Z"></path><text x="89.34" y="-227.73" text-anchor="middle" font-family="'Times-Roman',serif" font-size="14" fill="#000000">packages 1..*</text></g><g class="node"><title>64127960</title><path stroke="#000000" fill="#f0f8ff" d="M 261,-363.7 L 261,-413.3,333.88,-413.3,333.88,-363.7 Z"></path><path stroke="#000000" fill="none" d="M 261,-388.5 L 333.88,-388.5"></path><text x="297.44" y="-396.7" text-anchor="middle" font-family="'Times-Roman',serif" font-size="14" fill="#000000">Entity</text><text x="269" y="-371.9" text-anchor="start" font-family="'Times-Roman',serif" font-size="14" fill="#000000">+name:ID</text></g><g class="relation" style="opacity: 1;"><title>64147968-&gt;64127960</title><path stroke="#000000" fill="none" d="M 256.37,-440.59 C 261.36,-434.38,266.56,-427.91,271.52,-421.75"></path><path class="solid" stroke="#000000" fill="#000000" d="M 274.55,-423.56 L 278.09,-413.58,269.09,-419.18 Z"></path><path class="solid" stroke="#000000" fill="#000000" d="M 256.26,-440.73 L 255.62,-447.91,248.74,-450.08,249.38,-442.9 Z"></path><text x="245.62" y="-417.78" text-anchor="middle" font-family="'Times-Roman',serif" font-size="14" fill="#000000">entities 1..*</text></g><g class="node"><title>62785888</title><path stroke="#000000" fill="#f0f8ff" d="M 494.22,-0.5 L 494.22,-50.1,578.66,-50.1,578.66,-0.5 Z"></path><path stroke="#000000" fill="none" d="M 494.22,-25.3 L 578.66,-25.3"></path><text x="536.44" y="-33.5" text-anchor="middle" font-family="'Times-Roman',serif" font-size="14" fill="#000000">SimpleType</text><text x="502.22" y="-8.7" text-anchor="start" font-family="'Times-Roman',serif" font-size="14" fill="#000000">+name:ID</text></g><g class="relation" style="opacity: 1;"><title>64147968-&gt;62785888</title><path stroke="#000000" fill="none" d="M 285.22,-472.15 C 389.48,-465.21,603.44,-433.97,603.44,-294.5,603.44,-294.5,603.44,-294.5,603.44,-197.5,603.44,-146.59,577.43,-92.66,557.82,-59.24"></path><path class="solid" stroke="#000000" fill="#000000" d="M 560.64,-57.14 L 552.49,-50.37,554.64,-60.74 Z"></path><path class="solid" stroke="#000000" fill="#000000" d="M 285.05,-472.16 L 279.3,-476.51,273.07,-472.88,278.82,-468.53 Z"></path><text x="504.47" y="-54.57" text-anchor="middle" font-family="'Times-Roman',serif" font-size="14" fill="#000000">simpleTypes 0..*</text></g><g class="node"><title>64077072</title><path stroke="#000000" fill="#f0f8ff" d="M 0,-260.3 L 0,-326.7,128.88,-326.7,128.88,-260.3 Z"></path><path stroke="#000000" fill="none" d="M 0,-301.9 L 128.88,-301.9"></path><text x="64.44" y="-310.1" text-anchor="middle" font-family="'Times-Roman',serif" font-size="14" fill="#000000">ConfigParam</text><text x="8" y="-285.3" text-anchor="start" font-family="'Times-Roman',serif" font-size="14" fill="#000000">+key:ID</text><text x="8" y="-268.5" text-anchor="start" font-family="'Times-Roman',serif" font-size="14" fill="#000000">+value:BASETYPE</text></g><g class="relation" style="opacity: 1;"><title>64135208-&gt;64077072</title><path stroke="#000000" fill="none" d="M 76.11,-351.63 C 75.12,-346.77,74.09,-341.75,73.08,-336.79"></path><path class="solid" stroke="#000000" fill="#000000" d="M 76.47,-335.88 L 71.03,-326.78,69.61,-337.28 Z"></path><path class="solid" stroke="#000000" fill="#000000" d="M 76.14,-351.79 L 81.26,-356.87,78.55,-363.55,73.43,-358.47 Z"></path><text x="124.88" y="-330.98" text-anchor="middle" font-family="'Times-Roman',serif" font-size="14" fill="#000000">config_params 0..*</text></g><g class="relation" style="opacity: 1;"><title>64153480-&gt;64153480</title><path stroke="#000000" fill="none" d="M 165.8,-212.54 C 171.88,-210.07,175.88,-205.39,175.88,-198.5,175.88,-190.94,171.06,-186.04,163.97,-183.8"></path><path class="solid" stroke="#000000" fill="#000000" d="M 164.35,-180.32 L 153.96,-182.38,163.37,-187.25 Z"></path><path class="solid" stroke="#000000" fill="#000000" d="M 165.78,-212.55 L 160.56,-217.53,153.96,-214.62,159.18,-209.65 Z"></path><text x="203.53" y="-169.78" text-anchor="middle" font-family="'Times-Roman',serif" font-size="14" fill="#000000">childPackage 0..*</text></g><g class="node"><title>64154896</title><path stroke="#000000" fill="#f0f8ff" d="M 196.01,-268.7 L 196.01,-318.3,292.87,-318.3,292.87,-268.7 Z"></path><path stroke="#000000" fill="none" d="M 196.01,-293.5 L 292.87,-293.5"></path><text x="244.44" y="-301.7" text-anchor="middle" font-family="'Times-Roman',serif" font-size="14" fill="#000000">EntityPackage</text><text x="244.44" y="-276.9" text-anchor="middle" font-family="'Times-Roman',serif" font-size="14" fill="#000000"> </text></g><g class="relation" style="opacity: 1;"><title>64154896-&gt;64153480</title><path stroke="#000000" fill="none" d="M 211.73,-268.55 C 195.44,-256.62,175.57,-242.07,158.29,-229.41"></path><path class="solid" stroke="#000000" fill="#000000" d="M 160.17,-226.45 L 150.03,-223.37,156.03,-232.1 Z"></path><text x="174.71" y="-227.57" text-anchor="middle" font-family="'Times-Roman',serif" font-size="14" fill="#000000">package </text></g><g class="relation" style="opacity: 1;"><title>64127960-&gt;64154896</title><path stroke="#000000" fill="none" d="M 277.74,-352.94 C 272.93,-344.49,267.79,-335.48,263.03,-327.12"></path><path class="solid" stroke="#000000" fill="#000000" d="M 266.03,-325.32 L 258.04,-318.37,259.95,-328.79 Z"></path><path class="solid" stroke="#000000" fill="#000000" d="M 277.85,-353.12 L 284.29,-356.36,283.79,-363.55,277.34,-360.32 Z"></path><text x="226.74" y="-322.57" text-anchor="middle" font-family="'Times-Roman',serif" font-size="14" fill="#000000">belongsTo </text></g><g class="node"><title>64430120</title><path stroke="#000000" fill="#f0f8ff" d="M 314.83,-268.7 L 314.83,-318.3,386.04,-318.3,386.04,-268.7 Z"></path><path stroke="#000000" fill="none" d="M 314.83,-293.5 L 386.04,-293.5"></path><text x="350.44" y="-301.7" text-anchor="middle" font-family="'Times-Roman',serif" font-size="14" fill="#000000">*Property</text><text x="350.44" y="-276.9" text-anchor="middle" font-family="'Times-Roman',serif" font-size="14" fill="#000000"> </text></g><g class="relation" style="opacity: 1;"><title>64127960-&gt;64430120</title><path stroke="#000000" fill="none" d="M 317.13,-352.94 C 321.95,-344.49,327.09,-335.48,331.85,-327.12"></path><path class="solid" stroke="#000000" fill="#000000" d="M 334.93,-328.79 L 336.84,-318.37,328.84,-325.32 Z"></path><path class="solid" stroke="#000000" fill="#000000" d="M 317.03,-353.12 L 317.53,-360.32,311.09,-363.55,310.58,-356.36 Z"></path><text x="377.07" y="-322.57" text-anchor="middle" font-family="'Times-Roman',serif" font-size="14" fill="#000000">properties 0..*</text></g><g class="node"><title>64431536</title><path stroke="#000000" fill="#f0f8ff" d="M 193.73,-173.7 L 193.73,-223.3,285.15,-223.3,285.15,-173.7 Z"></path><path stroke="#000000" fill="none" d="M 193.73,-198.5 L 285.15,-198.5"></path><text x="239.44" y="-206.7" text-anchor="middle" font-family="'Times-Roman',serif" font-size="14" fill="#000000">BaseProperty</text><text x="201.73" y="-181.9" text-anchor="start" font-family="'Times-Roman',serif" font-size="14" fill="#000000">+name:ID</text></g><g class="relation" style="opacity: 1;"><title>64430120-&gt;64431536</title><path stroke="#000000" fill="none" d="M 313.81,-261.81 C 298.89,-249.31,281.9,-235.07,267.93,-223.37"></path><path class="solid" stroke="#000000" fill="none" d="M 311.94,-264.81 L 321.85,-268.55,316.44,-259.45 Z"></path></g><g class="node"><title>64432952</title><path stroke="#000000" fill="#f0f8ff" d="M 307.45,-173.7 L 307.45,-223.3,393.43,-223.3,393.43,-173.7 Z"></path><path stroke="#000000" fill="none" d="M 307.45,-198.5 L 393.43,-198.5"></path><text x="350.44" y="-206.7" text-anchor="middle" font-family="'Times-Roman',serif" font-size="14" fill="#000000">ListProperty</text><text x="315.45" y="-181.9" text-anchor="start" font-family="'Times-Roman',serif" font-size="14" fill="#000000">+name:ID</text></g><g class="relation" style="opacity: 1;"><title>64430120-&gt;64432952</title><path stroke="#000000" fill="none" d="M 350.44,-258.3 C 350.44,-246.69,350.44,-233.99,350.44,-223.37"></path><path class="solid" stroke="#000000" fill="none" d="M 346.94,-258.55 L 350.44,-268.55,353.94,-258.55 Z"></path></g><g class="node"><title>64438784</title><path stroke="#000000" fill="#f0f8ff" d="M 415.56,-173.7 L 415.56,-223.3,523.32,-223.3,523.32,-173.7 Z"></path><path stroke="#000000" fill="none" d="M 415.56,-198.5 L 523.32,-198.5"></path><text x="469.44" y="-206.7" text-anchor="middle" font-family="'Times-Roman',serif" font-size="14" fill="#000000">DisplayProperty</text><text x="423.56" y="-181.9" text-anchor="start" font-family="'Times-Roman',serif" font-size="14" fill="#000000">+name:ID</text></g><g class="relation" style="opacity: 1;"><title>64430120-&gt;64438784</title><path stroke="#000000" fill="none" d="M 389.27,-262.16 C 405.37,-249.57,423.78,-235.18,438.9,-223.37"></path><path class="solid" stroke="#000000" fill="none" d="M 386.81,-259.63 L 381.08,-268.55,391.12,-265.15 Z"></path></g><g class="node"><title>64441616</title><path stroke="#000000" fill="#f0f8ff" d="M 442.44,-87.1 L 442.44,-136.7,496.44,-136.7,496.44,-87.1 Z"></path><path stroke="#000000" fill="none" d="M 442.44,-111.9 L 496.21,-111.9"></path><text x="469.32" y="-120.1" text-anchor="middle" font-family="'Times-Roman',serif" font-size="14" fill="#000000">*Type</text><text x="469.32" y="-95.3" text-anchor="middle" font-family="'Times-Roman',serif" font-size="14" fill="#000000"> </text></g><g class="relation" style="opacity: 1;"><title>64431536-&gt;64441616</title><path stroke="#000000" fill="none" d="M 285.37,-177.6 C 289.1,-176.08,292.83,-174.6,296.44,-173.2,342.88,-155.23,397.21,-136.69,432.42,-125"></path><path class="solid" stroke="#000000" fill="#000000" d="M 433.87,-128.2 L 442.26,-121.74,431.67,-121.56 Z"></path><text x="428.46" y="-125.94" text-anchor="middle" font-family="'Times-Roman',serif" font-size="14" fill="#000000">type </text></g><g class="relation" style="opacity: 1;"><title>64432952-&gt;64441616</title><path stroke="#000000" fill="none" d="M 384.22,-173.48 C 399.76,-162.44,418.19,-149.33,433.94,-138.14"></path><path class="solid" stroke="#000000" fill="#000000" d="M 436.25,-140.79 L 442.37,-132.14,432.19,-135.09 Z"></path><text x="456.17" y="-136.34" text-anchor="middle" font-family="'Times-Roman',serif" font-size="14" fill="#000000">type </text></g><g class="relation" style="opacity: 1;"><title>64438784-&gt;64441616</title><path stroke="#000000" fill="none" d="M 469.44,-173.48 C 469.44,-165.27,469.44,-155.91,469.44,-147.05"></path><path class="solid" stroke="#000000" fill="#000000" d="M 472.94,-146.98 L 469.44,-136.98,465.94,-146.98 Z"></path><text x="483.24" y="-141.18" text-anchor="middle" font-family="'Times-Roman',serif" font-size="14" fill="#000000">type </text></g><g class="node"><title>64440200</title><path stroke="#000000" fill="#f0f8ff" d="M 529,-450.3 L 529,-499.9,601.88,-499.9,601.88,-450.3 Z"></path><path stroke="#000000" fill="none" d="M 529,-475.1 L 601.88,-475.1"></path><text x="565.44" y="-483.3" text-anchor="middle" font-family="'Times-Roman',serif" font-size="14" fill="#000000">Flag</text><text x="537" y="-458.5" text-anchor="start" font-family="'Times-Roman',serif" font-size="14" fill="#000000">+name:ID</text></g><g class="relation" style="opacity: 1;"><title>64441616-&gt;64127960</title><path stroke="#000000" fill="none" d="M 504.76,-136.38 C 516.48,-146.22,528.14,-158.76,534.44,-173.2,543.43,-193.81,544.47,-203.67,534.44,-223.8,493.64,-305.71,390.06,-354.17,334.31,-375.14"></path><path class="solid" stroke="#000000" fill="none" d="M 506.71,-133.46 L 496.7,-130,502.37,-138.95 Z"></path></g><g class="relation" style="opacity: 1;"><title>64441616-&gt;62785888</title><path stroke="#000000" fill="none" d="M 494.84,-78.83 C 502.32,-69.39,510.36,-59.22,517.37,-50.38"></path><path class="solid" stroke="#000000" fill="none" d="M 491.92,-76.87 L 488.46,-86.88,497.41,-81.22 Z"></path></g><g class="node"><title>64128432</title><path stroke="#000000" fill="#f0f8ff" d="M 637.44,-268.7 L 637.44,-318.3,691.44,-318.3,691.44,-268.7 Z"></path><path stroke="#000000" fill="none" d="M 637.44,-293.5 L 691.21,-293.5"></path><text x="664.32" y="-301.7" text-anchor="middle" font-family="'Times-Roman',serif" font-size="14" fill="#000000">ID</text><text x="664.32" y="-276.9" text-anchor="middle" font-family="'Times-Roman',serif" font-size="14" fill="#000000"> </text></g><g class="node"><title>64129848</title><path stroke="#000000" fill="#f0f8ff" d="M 713.17,-268.7 L 713.17,-318.3,779.71,-318.3,779.71,-268.7 Z"></path><path stroke="#000000" fill="none" d="M 713.17,-293.5 L 779.71,-293.5"></path><text x="746.44" y="-301.7" text-anchor="middle" font-family="'Times-Roman',serif" font-size="14" fill="#000000">STRING</text><text x="746.44" y="-276.9" text-anchor="middle" font-family="'Times-Roman',serif" font-size="14" fill="#000000"> </text></g><g class="node"><title>64135680</title><path stroke="#000000" fill="#f0f8ff" d="M 801.39,-268.7 L 801.39,-318.3,855.49,-318.3,855.49,-268.7 Z"></path><path stroke="#000000" fill="none" d="M 801.39,-293.5 L 855.49,-293.5"></path><text x="828.44" y="-301.7" text-anchor="middle" font-family="'Times-Roman',serif" font-size="14" fill="#000000">BOOL</text><text x="828.44" y="-276.9" text-anchor="middle" font-family="'Times-Roman',serif" font-size="14" fill="#000000"> </text></g><g class="node"><title>64137096</title><path stroke="#000000" fill="#f0f8ff" d="M 919.44,-173.7 L 919.44,-223.3,973.44,-223.3,973.44,-173.7 Z"></path><path stroke="#000000" fill="none" d="M 919.44,-198.5 L 972.76,-198.5"></path><text x="946.1" y="-206.7" text-anchor="middle" font-family="'Times-Roman',serif" font-size="14" fill="#000000">INT</text><text x="946.1" y="-181.9" text-anchor="middle" font-family="'Times-Roman',serif" font-size="14" fill="#000000"> </text></g><g class="node"><title>64138512</title><path stroke="#000000" fill="#f0f8ff" d="M 877.89,-268.7 L 877.89,-318.3,938.99,-318.3,938.99,-268.7 Z"></path><path stroke="#000000" fill="none" d="M 877.89,-293.5 L 938.99,-293.5"></path><text x="908.44" y="-301.7" text-anchor="middle" font-family="'Times-Roman',serif" font-size="14" fill="#000000">FLOAT</text><text x="908.44" y="-276.9" text-anchor="middle" font-family="'Times-Roman',serif" font-size="14" fill="#000000"> </text></g><g class="node"><title>64148440</title><path stroke="#000000" fill="#f0f8ff" d="M 995.78,-173.7 L 995.78,-223.3,1105.1,-223.3,1105.1,-173.7 Z"></path><path stroke="#000000" fill="none" d="M 995.78,-198.5 L 1105.1,-198.5"></path><text x="1050.44" y="-206.7" text-anchor="middle" font-family="'Times-Roman',serif" font-size="14" fill="#000000">STRICTFLOAT</text><text x="1050.44" y="-181.9" text-anchor="middle" font-family="'Times-Roman',serif" font-size="14" fill="#000000"> </text></g><g class="node"><title>64149856</title><path stroke="#000000" fill="#f0f8ff" d="M 960.5,-268.7 L 960.5,-318.3,1036.38,-318.3,1036.38,-268.7 Z"></path><path stroke="#000000" fill="none" d="M 960.5,-293.5 L 1036.38,-293.5"></path><text x="998.44" y="-301.7" text-anchor="middle" font-family="'Times-Roman',serif" font-size="14" fill="#000000">NUMBER</text><text x="998.44" y="-276.9" text-anchor="middle" font-family="'Times-Roman',serif" font-size="14" fill="#000000"> </text></g><g class="relation" style="opacity: 1;"><title>64149856-&gt;64137096</title><path stroke="#000000" fill="none" d="M 980.1,-259.71 C 973.41,-247.73,965.97,-234.42,959.78,-223.37"></path><path class="solid" stroke="#000000" fill="none" d="M 977.11,-261.53 L 985.05,-268.55,983.22,-258.11 Z"></path></g><g class="relation" style="opacity: 1;"><title>64149856-&gt;64148440</title><path stroke="#000000" fill="none" d="M 1016.77,-259.71 C 1023.47,-247.73,1030.91,-234.42,1037.09,-223.37"></path><path class="solid" stroke="#000000" fill="none" d="M 1013.66,-258.11 L 1011.83,-268.55,1019.77,-261.53 Z"></path></g><g class="node"><title>64151592</title><path stroke="#000000" fill="#f0f8ff" d="M 785.05,-363.7 L 785.05,-413.3,871.83,-413.3,871.83,-363.7 Z"></path><path stroke="#000000" fill="none" d="M 785.05,-388.5 L 871.83,-388.5"></path><text x="828.44" y="-396.7" text-anchor="middle" font-family="'Times-Roman',serif" font-size="14" fill="#000000">BASETYPE</text><text x="828.44" y="-371.9" text-anchor="middle" font-family="'Times-Roman',serif" font-size="14" fill="#000000"> </text></g><g class="relation" style="opacity: 1;"><title>64151592-&gt;64128432</title><path stroke="#000000" fill="none" d="M 775.58,-365.96 C 752.38,-355.57,725.28,-342.12,702.44,-327.2,698.36,-324.54,694.24,-321.47,690.31,-318.31"></path><path class="solid" stroke="#000000" fill="none" d="M 774.37,-369.25 L 784.93,-370.08,777.19,-362.84 Z"></path></g><g class="relation" style="opacity: 1;"><title>64151592-&gt;64129848</title><path stroke="#000000" fill="none" d="M 800.46,-355.76 C 789.66,-343.52,777.52,-329.75,767.48,-318.37"></path><path class="solid" stroke="#000000" fill="none" d="M 798.08,-358.36 L 807.32,-363.55,803.33,-353.73 Z"></path></g><g class="relation" style="opacity: 1;"><title>64151592-&gt;64135680</title><path stroke="#000000" fill="none" d="M 828.44,-353.3 C 828.44,-341.69,828.44,-328.99,828.44,-318.37"></path><path class="solid" stroke="#000000" fill="none" d="M 824.94,-353.55 L 828.44,-363.55,831.94,-353.55 Z"></path></g><g class="relation" style="opacity: 1;"><title>64151592-&gt;64138512</title><path stroke="#000000" fill="none" d="M 855.74,-355.76 C 866.27,-343.52,878.12,-329.75,887.91,-318.37"></path><path class="solid" stroke="#000000" fill="none" d="M 852.91,-353.69 L 849.04,-363.55,858.22,-358.25 Z"></path></g><g class="relation" style="opacity: 1;"><title>64151592-&gt;64149856</title><path stroke="#000000" fill="none" d="M 880.96,-363.51 C 902.81,-353.03,928.21,-340.18,950.44,-327.2,955.14,-324.45,959.99,-321.41,964.73,-318.32"></path><path class="solid" stroke="#000000" fill="none" d="M 879.36,-360.4 L 871.83,-367.86,882.37,-366.72 Z"></path></g><g class="node"><title>64153008</title><path stroke="#000000" fill="#f0f8ff" d="M 791.27,-450.3 L 791.27,-499.9,865.6,-499.9,865.6,-450.3 Z"></path><path stroke="#000000" fill="none" d="M 791.27,-475.1 L 865.6,-475.1"></path><text x="828.44" y="-483.3" text-anchor="middle" font-family="'Times-Roman',serif" font-size="14" fill="#000000">*OBJECT</text><text x="828.44" y="-458.5" text-anchor="middle" font-family="'Times-Roman',serif" font-size="14" fill="#000000"> </text></g><g class="relation" style="opacity: 1;"><title>64153008-&gt;64151592</title><path stroke="#000000" fill="none" d="M 828.44,-440.01 C 828.44,-431.16,828.44,-421.8,828.44,-413.58"></path><path class="solid" stroke="#000000" fill="none" d="M 824.94,-440.08 L 828.44,-450.08,831.94,-440.08 Z"></path></g></g></g></svg>